<?xml version="1.0" encoding="UTF-8" standalone="no"?>
<svg
   xmlns:dc="http://purl.org/dc/elements/1.1/"
   xmlns:cc="http://creativecommons.org/ns#"
   xmlns:rdf="http://www.w3.org/1999/02/22-rdf-syntax-ns#"
   xmlns:svg="http://www.w3.org/2000/svg"
   xmlns="http://www.w3.org/2000/svg"
   xmlns:sodipodi="http://sodipodi.sourceforge.net/DTD/sodipodi-0.dtd"
   xmlns:inkscape="http://www.inkscape.org/namespaces/inkscape"
   id="Capa_1"
   data-name="Capa 1"
   width="1820mm"
   height="350mm"
   viewBox="700 0 5159.0996 992.162"
   version="1.1"
   sodipodi:docname="logo_negatiu.svg"
   inkscape:version="0.92.4 (5da689c313, 2019-01-14)">
  <metadata
     id="metadata3777">
    <rdf:RDF>
      <cc:Work
         rdf:about="">
        <dc:format>image/svg+xml</dc:format>
        <dc:type
           rdf:resource="http://purl.org/dc/dcmitype/StillImage" />
        <dc:title>logo_negatiu</dc:title>
      </cc:Work>
    </rdf:RDF>
  </metadata>
  <sodipodi:namedview
     pagecolor="#ffffff"
     bordercolor="#666666"
     borderopacity="1"
     objecttolerance="10"
     gridtolerance="10"
     guidetolerance="10"
     inkscape:pageopacity="0"
     inkscape:pageshadow="2"
     inkscape:window-width="1920"
     inkscape:window-height="1001"
     id="namedview3775"
     showgrid="false"
     inkscape:pagecheckerboard="true"
     inkscape:zoom="0.22250891"
     inkscape:cx="3954.8977"
     inkscape:cy="354.03866"
     inkscape:window-x="-9"
     inkscape:window-y="-9"
     inkscape:window-maximized="1"
     inkscape:current-layer="Capa_1" />
  <defs
     id="defs3748">
    <style
       id="style3746">.cls-1{fill:#fff;stroke:#e4e4e1;stroke-miterlimit:10;}.cls-2{fill:#ab182d;}</style>
  </defs>
  <title
     id="title3750">logo_negatiu</title>
  <path
     class="cls-1"
     d="m 4069.3277,940.39966 h -331.4 V 362.89967 h 123.6 v 453.9 h 207.7"
     id="path3752"
     inkscape:connector-curvature="0"
     style="fill:#ffffff;stroke:#e4e4e1;stroke-miterlimit:10" />
  <path
     class="cls-1"
     d="m 4477.0277,940.39966 h -331.3 V 362.89967 h 123.6 v 453.9 h 207.7"
     id="path3754"
     inkscape:connector-curvature="0"
     style="fill:#ffffff;stroke:#e4e4e1;stroke-miterlimit:10" />
  <path
     class="cls-1"
     d="m 4553.4277,940.39966 h 123.6 V 361.39967 h -123.6 z"
     id="path3756"
     inkscape:connector-curvature="0"
     style="fill:#ffffff;stroke:#e4e4e1;stroke-miterlimit:10" />
  <path
     class="cls-1"
     d="m 3379.0277,522.49967 87.2,205.7 h -174.3 z m -177.1,417.89999 37.5,-88.59999 h 279.1 l 37.5,88.59999 h 134.2 l -311.2,-734.59999 -311.3,734.59999"
     id="path3758"
     inkscape:connector-curvature="0"
     style="fill:#ffffff;stroke:#e4e4e1;stroke-miterlimit:10" />
  <path
     class="cls-1"
     d="m 2333.8277,940.39966 h -331.4 V 362.89967 h 123.6 v 453.9 h 207.7"
     id="path3760"
     inkscape:connector-curvature="0"
     style="fill:#ffffff;stroke:#e4e4e1;stroke-miterlimit:10" />
  <path
     class="cls-1"
     d="m 5478.8277,522.49967 87.2,205.7 h -174.4 z m -177.1,417.89999 37.5,-88.59999 h 279.1 l 37.5,88.59999 h 134.2 l -311.2,-734.59999 -311.3,734.59999"
     id="path3762"
     inkscape:connector-curvature="0"
     style="fill:#ffffff;stroke:#e4e4e1;stroke-miterlimit:10" />
  <path
     class="cls-1"
     d="m 5066.0277,740.49967 v 0 m 94.7,-125.7 c -30.1,-45 -80.1,-80.7 -148.6,-106.1 -32.4,-12 -70.4,-15.7 -76.9,-19.9 -3.3,-2 -2.2,-7 1.6,-8 3.8,-1 36.5,-3.6 95.1,10.5 a 819.8,819.8 0 0 1 84.9,25.7 l 21.8,-57.8 21.8,-57.8 a 931.5,931.5 0 0 0 -100.4,-30.4 c -32.7,-7.8 -62.3,-12.6 -87.8,-14.3 -39,-2.5 -70,2.3 -94.7,14.5 l -1.2,0.6 -1.2,0.6 c -7.8,4.3 -47.2,28.5 -60.5,84.8 -2.9,11.5 -11.9,57.2 12.7,98.1 15.4,25.7 40.1,43.1 71.3,50.4 l 2.3,0.5 2.3,0.4 a 384.6,384.6 0 0 1 65.6,18 c 42.4,15.8 74,36.7 88.9,59 10.9,16.2 13.4,34.2 8.1,56.5 -0.9,3.2 -16,54.7 -60.1,71.1 -19.2,7.1 -43,7.5 -70.7,1 -39.8,-9.3 -86.3,-32.1 -138.3,-67.8 l -69.6,101.9 c 91.3,62.6 173.4,94.09999 245.2,94.09999 a 218.1,218.1 0 0 0 78.7,-14.2 c 44.5,-17.09999 82,-49.49999 108.4,-93.89999 18.5,-31.1 25.5,-57.7 26.7,-62.7 13.6,-56.1 4.8,-109.6 -25.4,-154.8"
     id="path3764"
     inkscape:connector-curvature="0"
     style="fill:#ffffff;stroke:#e4e4e1;stroke-miterlimit:10" />
  <path
     class="cls-1"
     d="m 1067.8277,940.39966 c -84.90005,0 -165.00005,-30.69999 -225.50004,-86.59999 a 300.3,300.3 0 0 1 -69.9,-95.8 285.2,285.2 0 0 1 0,-238 300.2,300.2 0 0 1 69.9,-95.8 c 60.49999,-55.8 140.59999,-86.6 225.50004,-86.6 a 337.1,337.1 0 0 1 133.6,27.2 319.5,319.5 0 0 1 106.9,74.2 l -89.8,84.9 c -37.7,-39.9 -92.7,-62.8 -150.8,-62.8 -109.10005,0 -197.80004,79.8 -197.80004,177.8 0,98 88.79999,177.8 197.80004,177.8 67.7,0 130,-30.7 166.7,-82.1 l 100.6,71.8 c -59.8,83.8 -159.8,133.89999 -267.3,133.89999"
     id="path3766"
     inkscape:connector-curvature="0"
     style="fill:#ffffff;stroke:#e4e4e1;stroke-miterlimit:10" />
  <path
     class="cls-1"
     d="m 3063.5277,730.99967 c 10.4,-14.2 17.9,-21.6 13.4,-33.5 -4.5,-11.9 -20.9,-12.7 -20.9,-12.7 l -364.4,-9.7 51.4,73.1 c 0,0 12.1,15.4 14.1,29.8 0,0 69.9,-1.7 110.6,17.4 a 217,217 0 0 1 -75.5,13.4 c -109.1,0 -197.8,-79.8 -197.8,-177.8 0,-98 88.8,-177.8 197.8,-177.8 58.1,0 113,22.9 150.8,62.8 l 89.8,-84.9 a 319.4,319.4 0 0 0 -106.9,-74.2 337,337 0 0 0 -133.6,-27.2 c -84.9,0 -165,30.7 -225.5,86.6 a 300.1,300.1 0 0 0 -69.9,95.8 285.1,285.1 0 0 0 0,238 300.1,300.1 0 0 0 69.9,95.8 c 60.5,55.8 140.6,86.59999 225.5,86.59999 a 339.9,339.9 0 0 0 125.1,-23.69999 v 0 c 0,0 35.8,-15.2 101.4,31.69999 0,0 -17.9,-71.49999 -9.7,-103.59999 8.2,-32.1 44,-91.7 54.4,-105.8"
     id="path3768"
     inkscape:connector-curvature="0"
     style="fill:#ffffff;stroke:#e4e4e1;stroke-miterlimit:10" />
  <path
     class="cls-1"
     d="m 5590.5277,171.49967 h -223.4 l 22.7,-67.49993 22.7,-67.499995 89,67.499995"
     id="path3770"
     inkscape:connector-curvature="0"
     style="fill:#ffffff;stroke:#e4e4e1;stroke-miterlimit:10" />
  <path
     class="cls-1"
     d="m 1643.5277,522.49967 87.2,205.7 h -174.4 z m -177.1,417.89999 37.5,-88.59999 h 279.1 l 37.5,88.59999 h 134.2 l -311.2,-734.59999 -311.3,734.59999"
     id="path3772"
     inkscape:connector-curvature="0"
     style="fill:#ffffff;stroke:#e4e4e1;stroke-miterlimit:10" />
</svg>
