<svg id="Capa_1" data-name="Capa 1" xmlns="http://www.w3.org/2000/svg" width="2092.8mm" height="377.6mm" viewBox="0 0 5932.4 1070.4"><defs><style>.cls-1{fill:#fff;stroke:#e4e4e1;stroke-miterlimit:10;}.cls-2{fill:#ab182d;}</style></defs><title>logo_negatiu</title><path class="cls-1" d="M4377.3,1229.1H4045.9V651.6h123.6v453.9h207.7" transform="translate(-166.4 -159.9)"/><path class="cls-1" d="M4785,1229.1H4453.7V651.6h123.6v453.9H4785" transform="translate(-166.4 -159.9)"/><path class="cls-1" d="M4861.4,1229.1H4985v-579H4861.4v579Z" transform="translate(-166.4 -159.9)"/><path class="cls-1" d="M3687,811.2l87.2,205.7H3599.9Zm-177.1,417.9,37.5-88.6h279.1l37.5,88.6h134.2L3687,494.5l-311.3,734.6" transform="translate(-166.4 -159.9)"/><path class="cls-1" d="M2641.8,1229.1H2310.4V651.6H2434v453.9h207.7" transform="translate(-166.4 -159.9)"/><path class="cls-1" d="M5786.8,811.2l87.2,205.7H5699.6Zm-177.1,417.9,37.5-88.6h279.1l37.5,88.6h134.2L5786.8,494.5l-311.3,734.6" transform="translate(-166.4 -159.9)"/><path class="cls-1" d="M5374,1029.2v0m94.7-125.7c-30.1-45-80.1-80.7-148.6-106.1-32.4-12-70.4-15.7-76.9-19.9-3.3-2-2.2-7,1.6-8s36.5-3.6,95.1,10.5a819.8,819.8,0,0,1,84.9,25.7l21.8-57.8,21.8-57.8a931.5,931.5,0,0,0-100.4-30.4c-32.7-7.8-62.3-12.6-87.8-14.3-39-2.5-70,2.3-94.7,14.5l-1.2.6-1.2.6c-7.8,4.3-47.2,28.5-60.5,84.8-2.9,11.5-11.9,57.2,12.7,98.1,15.4,25.7,40.1,43.1,71.3,50.4l2.3,0.5,2.3,0.4a384.6,384.6,0,0,1,65.6,18c42.4,15.8,74,36.7,88.9,59,10.9,16.2,13.4,34.2,8.1,56.5-0.9,3.2-16,54.7-60.1,71.1-19.2,7.1-43,7.5-70.7,1-39.8-9.3-86.3-32.1-138.3-67.8L5035.1,1135c91.3,62.6,173.4,94.1,245.2,94.1a218.1,218.1,0,0,0,78.7-14.2c44.5-17.1,82-49.5,108.4-93.9,18.5-31.1,25.5-57.7,26.7-62.7,13.6-56.1,4.8-109.6-25.4-154.8" transform="translate(-166.4 -159.9)"/><path class="cls-1" d="M1375.8,1229.1c-84.9,0-165-30.7-225.5-86.6a300.3,300.3,0,0,1-69.9-95.8,285.2,285.2,0,0,1,0-238,300.2,300.2,0,0,1,69.9-95.8c60.5-55.8,140.6-86.6,225.5-86.6a337.1,337.1,0,0,1,133.6,27.2,319.5,319.5,0,0,1,106.9,74.2l-89.8,84.9c-37.7-39.9-92.7-62.8-150.8-62.8-109.1,0-197.8,79.8-197.8,177.8s88.8,177.8,197.8,177.8c67.7,0,130-30.7,166.7-82.1l100.6,71.8c-59.8,83.8-159.8,133.9-267.3,133.9" transform="translate(-166.4 -159.9)"/><path class="cls-1" d="M3371.5,1019.7c10.4-14.2,17.9-21.6,13.4-33.5s-20.9-12.7-20.9-12.7l-364.4-9.7,51.4,73.1s12.1,15.4,14.1,29.8c0,0,69.9-1.7,110.6,17.4a217,217,0,0,1-75.5,13.4c-109.1,0-197.8-79.8-197.8-177.8s88.8-177.8,197.8-177.8c58.1,0,113,22.9,150.8,62.8l89.8-84.9a319.4,319.4,0,0,0-106.9-74.2,337,337,0,0,0-133.6-27.2c-84.9,0-165,30.7-225.5,86.6a300.1,300.1,0,0,0-69.9,95.8,285.1,285.1,0,0,0,0,238,300.1,300.1,0,0,0,69.9,95.8c60.5,55.8,140.6,86.6,225.5,86.6a339.9,339.9,0,0,0,125.1-23.7h0s35.8-15.2,101.4,31.7c0,0-17.9-71.5-9.7-103.6s44-91.7,54.4-105.8" transform="translate(-166.4 -159.9)"/><path class="cls-1" d="M5898.5,460.2H5675.1l22.7-67.5,22.7-67.5,89,67.5" transform="translate(-166.4 -159.9)"/><path class="cls-1" d="M1951.5,811.2l87.2,205.7H1864.3Zm-177.1,417.9,37.5-88.6h279.1l37.5,88.6h134.2L1951.5,494.5l-311.3,734.6" transform="translate(-166.4 -159.9)"/><g id="surface1"><path class="cls-2" d="M553.7,353.5c0,106.9-86.7,193.6-193.6,193.6S166.4,460.5,166.4,353.5s86.7-193.6,193.6-193.6,193.6,86.7,193.6,193.6" transform="translate(-166.4 -159.9)"/><path class="cls-2" d="M1048.9,353.5c0,106.9-86.7,193.6-193.6,193.6S661.6,460.5,661.6,353.5s86.7-193.6,193.6-193.6,193.6,86.7,193.6,193.6" transform="translate(-166.4 -159.9)"/><path class="cls-2" d="M1531.1,353.5c0,106.9-86.7,193.6-193.6,193.6s-193.6-86.7-193.6-193.6,86.7-193.6,193.6-193.6,193.6,86.7,193.6,193.6" transform="translate(-166.4 -159.9)"/></g></svg>